<mxfile host="app.diagrams.net" modified="2022-12-22T07:51:22.728Z" agent="5.0 (Windows NT 10.0; Win64; x64) AppleWebKit/537.36 (KHTML, like Gecko) Chrome/108.0.0.0 Safari/537.36 Edg/108.0.1462.54" etag="_vclo3xEnMg6XsrPACEO" version="20.5.3" type="github">
  <diagram id="C5RBs43oDa-KdzZeNtuy" name="Page-1">
    <mxGraphModel dx="990" dy="571" grid="1" gridSize="10" guides="1" tooltips="1" connect="1" arrows="1" fold="1" page="1" pageScale="1" pageWidth="827" pageHeight="1169" math="0" shadow="0">
      <root>
        <mxCell id="WIyWlLk6GJQsqaUBKTNV-0" />
        <mxCell id="WIyWlLk6GJQsqaUBKTNV-1" parent="WIyWlLk6GJQsqaUBKTNV-0" />
        <mxCell id="VzCw9Sapz8xhDQ7BDSVr-75" value="" style="rounded=0;whiteSpace=wrap;html=1;glass=0;fillColor=none;dashed=1;" vertex="1" parent="WIyWlLk6GJQsqaUBKTNV-1">
          <mxGeometry x="69.37" y="490" width="460.63" height="190" as="geometry" />
        </mxCell>
        <mxCell id="VzCw9Sapz8xhDQ7BDSVr-0" value="" style="edgeStyle=orthogonalEdgeStyle;rounded=0;orthogonalLoop=1;jettySize=auto;html=1;" edge="1" parent="WIyWlLk6GJQsqaUBKTNV-1" source="VzCw9Sapz8xhDQ7BDSVr-1" target="VzCw9Sapz8xhDQ7BDSVr-2">
          <mxGeometry relative="1" as="geometry" />
        </mxCell>
        <mxCell id="VzCw9Sapz8xhDQ7BDSVr-1" value="START&lt;br&gt;disp_num_dentists_by_sector(year: int)" style="ellipse;whiteSpace=wrap;html=1;rounded=0;" vertex="1" parent="WIyWlLk6GJQsqaUBKTNV-1">
          <mxGeometry x="50.370000000000005" width="228" height="70" as="geometry" />
        </mxCell>
        <mxCell id="VzCw9Sapz8xhDQ7BDSVr-12" value="" style="edgeStyle=orthogonalEdgeStyle;rounded=0;orthogonalLoop=1;jettySize=auto;html=1;" edge="1" parent="WIyWlLk6GJQsqaUBKTNV-1" source="VzCw9Sapz8xhDQ7BDSVr-2" target="VzCw9Sapz8xhDQ7BDSVr-11">
          <mxGeometry relative="1" as="geometry" />
        </mxCell>
        <mxCell id="VzCw9Sapz8xhDQ7BDSVr-2" value="Initialise num_dentists, num_dentists_private, num_dentists_public to []" style="whiteSpace=wrap;html=1;rounded=0;" vertex="1" parent="WIyWlLk6GJQsqaUBKTNV-1">
          <mxGeometry x="40" y="130" width="248.75" height="50" as="geometry" />
        </mxCell>
        <mxCell id="VzCw9Sapz8xhDQ7BDSVr-3" value="import data" style="rounded=0;whiteSpace=wrap;html=1;glass=0;dashed=1;" vertex="1" parent="WIyWlLk6GJQsqaUBKTNV-1">
          <mxGeometry x="224.37" y="80" width="115" height="40" as="geometry" />
        </mxCell>
        <mxCell id="VzCw9Sapz8xhDQ7BDSVr-4" value="" style="endArrow=none;dashed=1;html=1;rounded=0;strokeColor=default;entryX=0;entryY=0.5;entryDx=0;entryDy=0;" edge="1" parent="WIyWlLk6GJQsqaUBKTNV-1" target="VzCw9Sapz8xhDQ7BDSVr-3">
          <mxGeometry width="50" height="50" relative="1" as="geometry">
            <mxPoint x="166.37" y="100" as="sourcePoint" />
            <mxPoint x="376.37" y="330" as="targetPoint" />
          </mxGeometry>
        </mxCell>
        <mxCell id="VzCw9Sapz8xhDQ7BDSVr-19" value="" style="edgeStyle=orthogonalEdgeStyle;rounded=0;orthogonalLoop=1;jettySize=auto;html=1;" edge="1" parent="WIyWlLk6GJQsqaUBKTNV-1" source="VzCw9Sapz8xhDQ7BDSVr-11" target="VzCw9Sapz8xhDQ7BDSVr-13">
          <mxGeometry relative="1" as="geometry" />
        </mxCell>
        <mxCell id="VzCw9Sapz8xhDQ7BDSVr-11" value="for each row&amp;nbsp;in data.row_data" style="rounded=0;whiteSpace=wrap;html=1;" vertex="1" parent="WIyWlLk6GJQsqaUBKTNV-1">
          <mxGeometry x="81.87" y="220" width="165" height="40" as="geometry" />
        </mxCell>
        <mxCell id="VzCw9Sapz8xhDQ7BDSVr-20" value="" style="edgeStyle=orthogonalEdgeStyle;rounded=0;orthogonalLoop=1;jettySize=auto;html=1;" edge="1" parent="WIyWlLk6GJQsqaUBKTNV-1" source="VzCw9Sapz8xhDQ7BDSVr-13" target="VzCw9Sapz8xhDQ7BDSVr-14">
          <mxGeometry relative="1" as="geometry" />
        </mxCell>
        <mxCell id="VzCw9Sapz8xhDQ7BDSVr-51" style="edgeStyle=orthogonalEdgeStyle;rounded=0;orthogonalLoop=1;jettySize=auto;html=1;exitX=0;exitY=0.5;exitDx=0;exitDy=0;" edge="1" parent="WIyWlLk6GJQsqaUBKTNV-1" source="VzCw9Sapz8xhDQ7BDSVr-13">
          <mxGeometry relative="1" as="geometry">
            <mxPoint x="164" y="400" as="targetPoint" />
          </mxGeometry>
        </mxCell>
        <mxCell id="VzCw9Sapz8xhDQ7BDSVr-13" value="row in sequence&lt;br&gt;?" style="rhombus;whiteSpace=wrap;html=1;" vertex="1" parent="WIyWlLk6GJQsqaUBKTNV-1">
          <mxGeometry x="124.37" y="300" width="80" height="80" as="geometry" />
        </mxCell>
        <mxCell id="VzCw9Sapz8xhDQ7BDSVr-42" value="" style="edgeStyle=orthogonalEdgeStyle;rounded=0;orthogonalLoop=1;jettySize=auto;html=1;" edge="1" parent="WIyWlLk6GJQsqaUBKTNV-1" source="VzCw9Sapz8xhDQ7BDSVr-14" target="VzCw9Sapz8xhDQ7BDSVr-22">
          <mxGeometry relative="1" as="geometry" />
        </mxCell>
        <mxCell id="VzCw9Sapz8xhDQ7BDSVr-46" style="edgeStyle=orthogonalEdgeStyle;rounded=0;orthogonalLoop=1;jettySize=auto;html=1;exitX=0.5;exitY=0;exitDx=0;exitDy=0;" edge="1" parent="WIyWlLk6GJQsqaUBKTNV-1" source="VzCw9Sapz8xhDQ7BDSVr-14">
          <mxGeometry relative="1" as="geometry">
            <mxPoint x="165" y="280" as="targetPoint" />
            <Array as="points">
              <mxPoint x="301" y="280" />
            </Array>
          </mxGeometry>
        </mxCell>
        <mxCell id="VzCw9Sapz8xhDQ7BDSVr-14" value="row[0] == year&lt;br&gt;?" style="rhombus;whiteSpace=wrap;html=1;" vertex="1" parent="WIyWlLk6GJQsqaUBKTNV-1">
          <mxGeometry x="240" y="300" width="122.5" height="80" as="geometry" />
        </mxCell>
        <mxCell id="VzCw9Sapz8xhDQ7BDSVr-21" value="True" style="text;html=1;strokeColor=none;fillColor=none;align=center;verticalAlign=middle;whiteSpace=wrap;rounded=0;" vertex="1" parent="WIyWlLk6GJQsqaUBKTNV-1">
          <mxGeometry x="186.87" y="310" width="60" height="30" as="geometry" />
        </mxCell>
        <mxCell id="VzCw9Sapz8xhDQ7BDSVr-43" value="" style="edgeStyle=orthogonalEdgeStyle;rounded=0;orthogonalLoop=1;jettySize=auto;html=1;" edge="1" parent="WIyWlLk6GJQsqaUBKTNV-1" source="VzCw9Sapz8xhDQ7BDSVr-22" target="VzCw9Sapz8xhDQ7BDSVr-25">
          <mxGeometry relative="1" as="geometry" />
        </mxCell>
        <mxCell id="VzCw9Sapz8xhDQ7BDSVr-22" value="num_dentists = row" style="rounded=0;whiteSpace=wrap;html=1;" vertex="1" parent="WIyWlLk6GJQsqaUBKTNV-1">
          <mxGeometry x="400" y="319.98" width="120" height="40" as="geometry" />
        </mxCell>
        <mxCell id="VzCw9Sapz8xhDQ7BDSVr-49" style="edgeStyle=orthogonalEdgeStyle;rounded=0;orthogonalLoop=1;jettySize=auto;html=1;exitX=1;exitY=0.5;exitDx=0;exitDy=0;entryX=0.5;entryY=0;entryDx=0;entryDy=0;" edge="1" parent="WIyWlLk6GJQsqaUBKTNV-1" source="VzCw9Sapz8xhDQ7BDSVr-25" target="VzCw9Sapz8xhDQ7BDSVr-31">
          <mxGeometry relative="1" as="geometry">
            <mxPoint x="164" y="430" as="targetPoint" />
            <Array as="points">
              <mxPoint x="700" y="340" />
              <mxPoint x="700" y="400" />
              <mxPoint x="164" y="400" />
            </Array>
          </mxGeometry>
        </mxCell>
        <mxCell id="VzCw9Sapz8xhDQ7BDSVr-25" value="break" style="rounded=0;whiteSpace=wrap;html=1;" vertex="1" parent="WIyWlLk6GJQsqaUBKTNV-1">
          <mxGeometry x="560" y="320" width="120" height="40" as="geometry" />
        </mxCell>
        <mxCell id="VzCw9Sapz8xhDQ7BDSVr-56" value="" style="edgeStyle=orthogonalEdgeStyle;rounded=0;orthogonalLoop=1;jettySize=auto;html=1;" edge="1" parent="WIyWlLk6GJQsqaUBKTNV-1" source="VzCw9Sapz8xhDQ7BDSVr-31" target="VzCw9Sapz8xhDQ7BDSVr-39">
          <mxGeometry relative="1" as="geometry" />
        </mxCell>
        <mxCell id="VzCw9Sapz8xhDQ7BDSVr-31" value="for each i in data.sector_indices[0]" style="rounded=0;whiteSpace=wrap;html=1;" vertex="1" parent="WIyWlLk6GJQsqaUBKTNV-1">
          <mxGeometry x="69.37" y="440" width="190" height="40" as="geometry" />
        </mxCell>
        <mxCell id="VzCw9Sapz8xhDQ7BDSVr-74" style="edgeStyle=orthogonalEdgeStyle;rounded=0;orthogonalLoop=1;jettySize=auto;html=1;exitX=0;exitY=0.5;exitDx=0;exitDy=0;entryX=0;entryY=0.5;entryDx=0;entryDy=0;" edge="1" parent="WIyWlLk6GJQsqaUBKTNV-1" source="VzCw9Sapz8xhDQ7BDSVr-39" target="VzCw9Sapz8xhDQ7BDSVr-72">
          <mxGeometry relative="1" as="geometry">
            <mxPoint x="80" y="640" as="targetPoint" />
            <Array as="points">
              <mxPoint x="80" y="560" />
              <mxPoint x="80" y="640" />
            </Array>
          </mxGeometry>
        </mxCell>
        <mxCell id="VzCw9Sapz8xhDQ7BDSVr-39" value="i in&lt;br&gt;sequence&lt;br&gt;?" style="rhombus;whiteSpace=wrap;html=1;" vertex="1" parent="WIyWlLk6GJQsqaUBKTNV-1">
          <mxGeometry x="124.37" y="520" width="80" height="80" as="geometry" />
        </mxCell>
        <mxCell id="VzCw9Sapz8xhDQ7BDSVr-44" value="True" style="text;html=1;strokeColor=none;fillColor=none;align=center;verticalAlign=middle;whiteSpace=wrap;rounded=0;" vertex="1" parent="WIyWlLk6GJQsqaUBKTNV-1">
          <mxGeometry x="350" y="310" width="60" height="30" as="geometry" />
        </mxCell>
        <mxCell id="VzCw9Sapz8xhDQ7BDSVr-47" value="False" style="text;html=1;strokeColor=none;fillColor=none;align=center;verticalAlign=middle;whiteSpace=wrap;rounded=0;" vertex="1" parent="WIyWlLk6GJQsqaUBKTNV-1">
          <mxGeometry x="240" y="280" width="60" height="30" as="geometry" />
        </mxCell>
        <mxCell id="VzCw9Sapz8xhDQ7BDSVr-52" value="False" style="text;html=1;strokeColor=none;fillColor=none;align=center;verticalAlign=middle;whiteSpace=wrap;rounded=0;" vertex="1" parent="WIyWlLk6GJQsqaUBKTNV-1">
          <mxGeometry x="80" y="310" width="60" height="30" as="geometry" />
        </mxCell>
        <mxCell id="VzCw9Sapz8xhDQ7BDSVr-57" value="" style="edgeStyle=orthogonalEdgeStyle;rounded=0;orthogonalLoop=1;jettySize=auto;html=1;" edge="1" parent="WIyWlLk6GJQsqaUBKTNV-1">
          <mxGeometry relative="1" as="geometry">
            <mxPoint x="204.32652173913038" y="560.0434782608696" as="sourcePoint" />
            <mxPoint x="240.0665760869565" y="560.0434782608695" as="targetPoint" />
          </mxGeometry>
        </mxCell>
        <mxCell id="VzCw9Sapz8xhDQ7BDSVr-60" value="True" style="text;html=1;strokeColor=none;fillColor=none;align=center;verticalAlign=middle;whiteSpace=wrap;rounded=0;" vertex="1" parent="WIyWlLk6GJQsqaUBKTNV-1">
          <mxGeometry x="186.87" y="530" width="60" height="30" as="geometry" />
        </mxCell>
        <mxCell id="VzCw9Sapz8xhDQ7BDSVr-66" style="edgeStyle=orthogonalEdgeStyle;rounded=0;orthogonalLoop=1;jettySize=auto;html=1;" edge="1" parent="WIyWlLk6GJQsqaUBKTNV-1" source="VzCw9Sapz8xhDQ7BDSVr-64">
          <mxGeometry relative="1" as="geometry">
            <mxPoint x="164" y="500" as="targetPoint" />
            <Array as="points">
              <mxPoint x="520" y="560" />
            </Array>
          </mxGeometry>
        </mxCell>
        <mxCell id="VzCw9Sapz8xhDQ7BDSVr-64" value="Add num_dentists[i] to list comprehension list" style="rounded=0;whiteSpace=wrap;html=1;" vertex="1" parent="WIyWlLk6GJQsqaUBKTNV-1">
          <mxGeometry x="240" y="530" width="250" height="60" as="geometry" />
        </mxCell>
        <mxCell id="VzCw9Sapz8xhDQ7BDSVr-71" value="False" style="text;html=1;strokeColor=none;fillColor=none;align=center;verticalAlign=middle;whiteSpace=wrap;rounded=0;" vertex="1" parent="WIyWlLk6GJQsqaUBKTNV-1">
          <mxGeometry x="75" y="530" width="60" height="30" as="geometry" />
        </mxCell>
        <mxCell id="VzCw9Sapz8xhDQ7BDSVr-80" value="" style="edgeStyle=orthogonalEdgeStyle;rounded=0;orthogonalLoop=1;jettySize=auto;html=1;" edge="1" parent="WIyWlLk6GJQsqaUBKTNV-1" source="VzCw9Sapz8xhDQ7BDSVr-72" target="VzCw9Sapz8xhDQ7BDSVr-79">
          <mxGeometry relative="1" as="geometry" />
        </mxCell>
        <mxCell id="VzCw9Sapz8xhDQ7BDSVr-72" value="Assign list comprehension list to num_dentists_private" style="rounded=0;whiteSpace=wrap;html=1;" vertex="1" parent="WIyWlLk6GJQsqaUBKTNV-1">
          <mxGeometry x="104.37" y="610" width="165.63" height="60" as="geometry" />
        </mxCell>
        <mxCell id="VzCw9Sapz8xhDQ7BDSVr-76" value="&lt;font style=&quot;font-size: 10px;&quot;&gt;num_dentists_private = sum([num_dentists[i] for i in data.sector_indices[0]])&lt;/font&gt;" style="text;html=1;strokeColor=none;fillColor=none;align=center;verticalAlign=middle;whiteSpace=wrap;rounded=0;glass=0;dashed=1;" vertex="1" parent="WIyWlLk6GJQsqaUBKTNV-1">
          <mxGeometry x="64" y="674" width="346" height="30" as="geometry" />
        </mxCell>
        <mxCell id="VzCw9Sapz8xhDQ7BDSVr-96" style="edgeStyle=orthogonalEdgeStyle;rounded=0;orthogonalLoop=1;jettySize=auto;html=1;exitX=1;exitY=0.5;exitDx=0;exitDy=0;fontFamily=Lucida Console;fontSize=10;entryX=1;entryY=0.5;entryDx=0;entryDy=0;" edge="1" parent="WIyWlLk6GJQsqaUBKTNV-1" source="VzCw9Sapz8xhDQ7BDSVr-79" target="VzCw9Sapz8xhDQ7BDSVr-95">
          <mxGeometry relative="1" as="geometry">
            <mxPoint x="490" y="730" as="targetPoint" />
            <Array as="points">
              <mxPoint x="490" y="640" />
              <mxPoint x="490" y="730" />
            </Array>
          </mxGeometry>
        </mxCell>
        <mxCell id="VzCw9Sapz8xhDQ7BDSVr-79" value="num_dentists_private = sum(num_dentists_private)" style="whiteSpace=wrap;html=1;rounded=0;" vertex="1" parent="WIyWlLk6GJQsqaUBKTNV-1">
          <mxGeometry x="310" y="610" width="160" height="60" as="geometry" />
        </mxCell>
        <mxCell id="VzCw9Sapz8xhDQ7BDSVr-82" value="" style="rounded=0;whiteSpace=wrap;html=1;glass=0;fillColor=none;dashed=1;" vertex="1" parent="WIyWlLk6GJQsqaUBKTNV-1">
          <mxGeometry x="69.37" y="760" width="460.63" height="190" as="geometry" />
        </mxCell>
        <mxCell id="VzCw9Sapz8xhDQ7BDSVr-83" value="" style="edgeStyle=orthogonalEdgeStyle;rounded=0;orthogonalLoop=1;jettySize=auto;html=1;" edge="1" parent="WIyWlLk6GJQsqaUBKTNV-1" target="VzCw9Sapz8xhDQ7BDSVr-85">
          <mxGeometry relative="1" as="geometry">
            <mxPoint x="164.3699999999999" y="750" as="sourcePoint" />
          </mxGeometry>
        </mxCell>
        <mxCell id="VzCw9Sapz8xhDQ7BDSVr-84" style="edgeStyle=orthogonalEdgeStyle;rounded=0;orthogonalLoop=1;jettySize=auto;html=1;exitX=0;exitY=0.5;exitDx=0;exitDy=0;entryX=0;entryY=0.5;entryDx=0;entryDy=0;" edge="1" parent="WIyWlLk6GJQsqaUBKTNV-1" source="VzCw9Sapz8xhDQ7BDSVr-85" target="VzCw9Sapz8xhDQ7BDSVr-92">
          <mxGeometry relative="1" as="geometry">
            <mxPoint x="80" y="910" as="targetPoint" />
            <Array as="points">
              <mxPoint x="80" y="830" />
              <mxPoint x="80" y="910" />
            </Array>
          </mxGeometry>
        </mxCell>
        <mxCell id="VzCw9Sapz8xhDQ7BDSVr-85" value="i in&lt;br&gt;sequence&lt;br&gt;?" style="rhombus;whiteSpace=wrap;html=1;" vertex="1" parent="WIyWlLk6GJQsqaUBKTNV-1">
          <mxGeometry x="124.37" y="790" width="80" height="80" as="geometry" />
        </mxCell>
        <mxCell id="VzCw9Sapz8xhDQ7BDSVr-86" value="" style="edgeStyle=orthogonalEdgeStyle;rounded=0;orthogonalLoop=1;jettySize=auto;html=1;" edge="1" parent="WIyWlLk6GJQsqaUBKTNV-1">
          <mxGeometry relative="1" as="geometry">
            <mxPoint x="204.32652173913038" y="830.0434782608695" as="sourcePoint" />
            <mxPoint x="240.0665760869565" y="830.0434782608695" as="targetPoint" />
          </mxGeometry>
        </mxCell>
        <mxCell id="VzCw9Sapz8xhDQ7BDSVr-87" value="True" style="text;html=1;strokeColor=none;fillColor=none;align=center;verticalAlign=middle;whiteSpace=wrap;rounded=0;" vertex="1" parent="WIyWlLk6GJQsqaUBKTNV-1">
          <mxGeometry x="186.87" y="800" width="60" height="30" as="geometry" />
        </mxCell>
        <mxCell id="VzCw9Sapz8xhDQ7BDSVr-88" style="edgeStyle=orthogonalEdgeStyle;rounded=0;orthogonalLoop=1;jettySize=auto;html=1;" edge="1" parent="WIyWlLk6GJQsqaUBKTNV-1" source="VzCw9Sapz8xhDQ7BDSVr-89">
          <mxGeometry relative="1" as="geometry">
            <mxPoint x="164" y="770" as="targetPoint" />
            <Array as="points">
              <mxPoint x="520" y="830" />
            </Array>
          </mxGeometry>
        </mxCell>
        <mxCell id="VzCw9Sapz8xhDQ7BDSVr-89" value="Add num_dentists[i] to list comprehension list" style="rounded=0;whiteSpace=wrap;html=1;" vertex="1" parent="WIyWlLk6GJQsqaUBKTNV-1">
          <mxGeometry x="240" y="800" width="250" height="60" as="geometry" />
        </mxCell>
        <mxCell id="VzCw9Sapz8xhDQ7BDSVr-90" value="False" style="text;html=1;strokeColor=none;fillColor=none;align=center;verticalAlign=middle;whiteSpace=wrap;rounded=0;" vertex="1" parent="WIyWlLk6GJQsqaUBKTNV-1">
          <mxGeometry x="75" y="800" width="60" height="30" as="geometry" />
        </mxCell>
        <mxCell id="VzCw9Sapz8xhDQ7BDSVr-91" value="" style="edgeStyle=orthogonalEdgeStyle;rounded=0;orthogonalLoop=1;jettySize=auto;html=1;" edge="1" parent="WIyWlLk6GJQsqaUBKTNV-1" source="VzCw9Sapz8xhDQ7BDSVr-92" target="VzCw9Sapz8xhDQ7BDSVr-94">
          <mxGeometry relative="1" as="geometry" />
        </mxCell>
        <mxCell id="VzCw9Sapz8xhDQ7BDSVr-92" value="Assign list comprehension list to num_dentists_public" style="rounded=0;whiteSpace=wrap;html=1;" vertex="1" parent="WIyWlLk6GJQsqaUBKTNV-1">
          <mxGeometry x="104.37" y="880" width="165.63" height="60" as="geometry" />
        </mxCell>
        <mxCell id="VzCw9Sapz8xhDQ7BDSVr-93" value="&lt;font style=&quot;font-size: 10px;&quot;&gt;num_dentists_public = sum([num_dentists[i] for i in data.sector_indices[1]])&lt;/font&gt;" style="text;html=1;strokeColor=none;fillColor=none;align=center;verticalAlign=middle;whiteSpace=wrap;rounded=0;glass=0;dashed=1;" vertex="1" parent="WIyWlLk6GJQsqaUBKTNV-1">
          <mxGeometry x="64" y="944" width="346" height="30" as="geometry" />
        </mxCell>
        <mxCell id="VzCw9Sapz8xhDQ7BDSVr-97" style="edgeStyle=orthogonalEdgeStyle;rounded=0;orthogonalLoop=1;jettySize=auto;html=1;exitX=1;exitY=0.5;exitDx=0;exitDy=0;fontFamily=Lucida Console;fontSize=10;" edge="1" parent="WIyWlLk6GJQsqaUBKTNV-1" source="VzCw9Sapz8xhDQ7BDSVr-94">
          <mxGeometry relative="1" as="geometry">
            <mxPoint x="164" y="1020" as="targetPoint" />
          </mxGeometry>
        </mxCell>
        <mxCell id="VzCw9Sapz8xhDQ7BDSVr-94" value="num_dentists_public = sum(num_dentists_public)" style="whiteSpace=wrap;html=1;rounded=0;" vertex="1" parent="WIyWlLk6GJQsqaUBKTNV-1">
          <mxGeometry x="310" y="880" width="160" height="60" as="geometry" />
        </mxCell>
        <mxCell id="VzCw9Sapz8xhDQ7BDSVr-95" value="for each i in data.sector_indices[1]" style="rounded=0;whiteSpace=wrap;html=1;" vertex="1" parent="WIyWlLk6GJQsqaUBKTNV-1">
          <mxGeometry x="69.37" y="710" width="190" height="40" as="geometry" />
        </mxCell>
        <mxCell id="VzCw9Sapz8xhDQ7BDSVr-100" value="" style="edgeStyle=orthogonalEdgeStyle;rounded=0;orthogonalLoop=1;jettySize=auto;html=1;fontFamily=Helvetica;fontSize=12;" edge="1" parent="WIyWlLk6GJQsqaUBKTNV-1" source="VzCw9Sapz8xhDQ7BDSVr-98" target="VzCw9Sapz8xhDQ7BDSVr-99">
          <mxGeometry relative="1" as="geometry" />
        </mxCell>
        <mxCell id="VzCw9Sapz8xhDQ7BDSVr-98" value="Display num_dentists_private and num_dentists_public" style="shape=parallelogram;perimeter=parallelogramPerimeter;whiteSpace=wrap;html=1;fixedSize=1;glass=0;fontFamily=Helvetica;fontSize=12;fillColor=default;" vertex="1" parent="WIyWlLk6GJQsqaUBKTNV-1">
          <mxGeometry x="56.56" y="1020" width="215.63" height="50" as="geometry" />
        </mxCell>
        <mxCell id="VzCw9Sapz8xhDQ7BDSVr-99" value="END&lt;br&gt;disp_num_dentists_by_sector(year: int)" style="ellipse;whiteSpace=wrap;html=1;rounded=0;" vertex="1" parent="WIyWlLk6GJQsqaUBKTNV-1">
          <mxGeometry x="50.370000000000005" y="1110" width="228" height="70" as="geometry" />
        </mxCell>
      </root>
    </mxGraphModel>
  </diagram>
</mxfile>
